<mxfile host="app.diagrams.net" modified="2021-04-03T08:37:20.710Z" agent="5.0 (Macintosh; Intel Mac OS X 10_15_6) AppleWebKit/605.1.15 (KHTML, like Gecko) Version/14.0.3 Safari/605.1.15" etag="Q_RaS5v6C1WUlPWHOuFQ" version="14.5.6" type="github">
  <diagram id="8gn3L7DyTsAorE4dcsiM" name="Page-1">
    <mxGraphModel dx="1554" dy="897" grid="1" gridSize="10" guides="1" tooltips="1" connect="1" arrows="1" fold="1" page="1" pageScale="1" pageWidth="827" pageHeight="1169" math="0" shadow="0">
      <root>
        <mxCell id="0" />
        <mxCell id="1" parent="0" />
        <mxCell id="rX1-UMf0qF5o1k1JOuGh-1" value="start" style="rounded=1;whiteSpace=wrap;html=1;fillColor=#d5e8d4;strokeColor=#82b366;" vertex="1" parent="1">
          <mxGeometry x="337" y="50" width="120" height="60" as="geometry" />
        </mxCell>
        <mxCell id="rX1-UMf0qF5o1k1JOuGh-2" value="pizza size" style="rhombus;whiteSpace=wrap;html=1;" vertex="1" parent="1">
          <mxGeometry x="330" y="140" width="134" height="80" as="geometry" />
        </mxCell>
        <mxCell id="rX1-UMf0qF5o1k1JOuGh-3" value="small $15" style="rounded=1;whiteSpace=wrap;html=1;" vertex="1" parent="1">
          <mxGeometry x="190" y="240" width="90" height="40" as="geometry" />
        </mxCell>
        <mxCell id="rX1-UMf0qF5o1k1JOuGh-4" value="large $25" style="rounded=1;whiteSpace=wrap;html=1;" vertex="1" parent="1">
          <mxGeometry x="520" y="240" width="90" height="40" as="geometry" />
        </mxCell>
        <mxCell id="rX1-UMf0qF5o1k1JOuGh-5" value="medium $20" style="rounded=1;whiteSpace=wrap;html=1;" vertex="1" parent="1">
          <mxGeometry x="352" y="240" width="90" height="40" as="geometry" />
        </mxCell>
      </root>
    </mxGraphModel>
  </diagram>
</mxfile>
